<svg xmlns="http://www.w3.org/2000/svg" width="1024" height="1024" viewBox="0 0 1024 1024">
<circle cx="512.00" cy="512.00" r="469.18" fill="#662485"/>
<path d="M 386.01 217.13 L 391.37 217.13 L 396.73 217.13 L 402.09 217.13 L 407.46 217.13 L 412.82 217.13 L 418.18 217.13 L 423.54 217.13 L 428.90 217.13 L 434.26 217.13 L 439.62 217.13 L 444.98 217.13 L 450.35 217.13 L 455.71 217.13 L 461.07 217.13 L 466.43 217.13 L 471.79 217.13 L 477.15 217.13 L 479.83 219.81 L 482.51 222.49 L 487.87 222.49 L 490.55 225.17 L 490.55 230.53 L 490.55 235.90 L 487.87 238.58 L 485.19 241.26 L 485.19 246.62 L 485.19 251.98 L 485.19 257.34 L 482.51 260.02 L 479.83 262.70 L 482.51 265.38 L 485.19 268.06 L 485.19 273.42 L 482.51 276.10 L 479.83 278.79 L 479.83 284.15 L 479.83 289.51 L 479.83 294.87 L 477.15 297.55 L 474.47 300.23 L 474.47 305.59 L 474.47 310.95 L 474.47 316.31 L 474.47 321.68 L 471.79 324.36 L 469.11 327.04 L 469.11 332.40 L 469.11 337.76 L 469.11 343.12 L 469.11 348.48 L 466.43 351.16 L 463.75 353.84 L 463.75 359.20 L 463.75 364.57 L 463.75 369.93 L 461.07 372.61 L 458.39 375.29 L 458.39 380.65 L 458.39 386.01 L 458.39 391.37 L 458.39 396.73 L 458.39 402.09 L 458.39 407.46 L 458.39 412.82 L 455.71 415.50 L 453.03 418.18 L 453.03 423.54 L 453.03 428.90 L 450.35 431.58 L 447.66 434.26 L 447.66 439.62 L 447.66 444.98 L 447.66 450.35 L 444.98 453.03 L 442.30 455.71 L 442.30 461.07 L 442.30 466.43 L 442.30 471.79 L 442.30 477.15 L 442.30 482.51 L 442.30 487.87 L 439.62 490.55 L 436.94 493.24 L 436.94 498.60 L 436.94 503.96 L 436.94 509.32 L 434.26 512.00 L 431.58 514.68 L 431.58 520.04 L 431.58 525.40 L 431.58 530.76 L 431.58 536.13 L 428.90 538.81 L 426.22 541.49 L 426.22 546.85 L 426.22 552.21 L 426.22 557.57 L 423.54 560.25 L 420.86 562.93 L 420.86 568.29 L 420.86 573.65 L 420.86 579.02 L 420.86 584.38 L 420.86 589.74 L 418.18 592.42 L 415.50 595.10 L 415.50 600.46 L 415.50 605.82 L 415.50 611.18 L 415.50 616.54 L 415.50 621.91 L 415.50 627.27 L 418.18 629.95 L 423.54 629.95 L 428.90 629.95 L 434.26 629.95 L 439.62 629.95 L 444.98 629.95 L 450.35 629.95 L 455.71 629.95 L 461.07 629.95 L 466.43 629.95 L 471.79 629.95 L 477.15 629.95 L 482.51 629.95 L 487.87 629.95 L 493.24 629.95 L 498.60 629.95 L 503.96 629.95 L 509.32 629.95 L 514.68 629.95 L 520.04 629.95 L 522.72 632.63 L 520.04 635.31 L 517.36 637.99 L 517.36 643.35 L 517.36 648.71 L 520.04 651.39 L 522.72 654.07 L 520.04 656.75 L 517.36 659.43 L 517.36 664.80 L 517.36 670.16 L 517.36 675.52 L 517.36 680.88 L 514.68 683.56 L 512.00 686.24 L 512.00 691.60 L 512.00 696.96 L 512.00 702.32 L 512.00 707.69 L 509.32 710.37 L 506.64 713.05 L 506.64 718.41 L 506.64 723.77 L 506.64 729.13 L 503.96 731.81 L 501.28 734.49 L 498.60 737.17 L 493.24 737.17 L 487.87 737.17 L 482.51 737.17 L 477.15 737.17 L 471.79 737.17 L 466.43 737.17 L 461.07 737.17 L 455.71 737.17 L 450.35 737.17 L 444.98 737.17 L 439.62 737.17 L 434.26 737.17 L 428.90 737.17 L 423.54 737.17 L 418.18 737.17 L 412.82 737.17 L 407.46 737.17 L 402.09 737.17 L 396.73 737.17 L 391.37 737.17 L 386.01 737.17 L 380.65 737.17 L 375.29 737.17 L 369.93 737.17 L 364.57 737.17 L 359.20 737.17 L 353.84 737.17 L 348.48 737.17 L 343.12 737.17 L 337.76 737.17 L 332.40 737.17 L 327.04 737.17 L 321.68 737.17 L 316.31 737.17 L 310.95 737.17 L 305.59 737.17 L 300.23 737.17 L 294.87 737.17 L 289.51 737.17 L 284.15 737.17 L 278.79 737.17 L 273.42 737.17 L 268.06 737.17 L 262.70 737.17 L 257.34 737.17 L 251.98 737.17 L 246.62 737.17 L 241.26 737.17 L 235.90 737.17 L 230.53 737.17 L 225.17 737.17 L 219.81 737.17 L 214.45 737.17 L 209.09 737.17 L 203.73 737.17 L 201.05 734.49 L 198.37 731.81 L 195.69 734.49 L 193.01 737.17 L 187.64 737.17 L 182.28 737.17 L 176.92 737.17 L 174.24 734.49 L 171.56 731.81 L 166.20 731.81 L 163.52 729.13 L 163.52 723.77 L 163.52 718.41 L 166.20 715.73 L 168.88 713.05 L 168.88 707.69 L 168.88 702.32 L 168.88 696.96 L 168.88 691.60 L 171.56 688.92 L 174.24 686.24 L 174.24 680.88 L 174.24 675.52 L 174.24 670.16 L 176.92 667.48 L 179.60 664.80 L 179.60 659.43 L 179.60 654.07 L 179.60 648.71 L 179.60 643.35 L 182.28 640.67 L 184.96 637.99 L 184.96 632.63 L 187.64 629.95 L 193.01 629.95 L 198.37 629.95 L 203.73 629.95 L 209.09 629.95 L 214.45 629.95 L 219.81 629.95 L 225.17 629.95 L 230.53 629.95 L 235.90 629.95 L 241.26 629.95 L 246.62 629.95 L 251.98 629.95 L 257.34 629.95 L 262.70 629.95 L 268.06 629.95 L 273.42 629.95 L 278.79 629.95 L 284.15 629.95 L 286.83 627.27 L 289.51 624.59 L 292.19 621.91 L 294.87 619.23 L 297.55 616.54 L 297.55 611.18 L 297.55 605.82 L 300.23 603.14 L 302.91 600.46 L 302.91 595.10 L 302.91 589.74 L 302.91 584.38 L 302.91 579.02 L 305.59 576.34 L 308.27 573.65 L 308.27 568.29 L 308.27 562.93 L 308.27 557.57 L 308.27 552.21 L 308.27 546.85 L 310.95 544.17 L 313.63 541.49 L 313.63 536.13 L 313.63 530.76 L 313.63 525.40 L 313.63 520.04 L 313.63 514.68 L 316.31 512.00 L 318.99 509.32 L 318.99 503.96 L 318.99 498.60 L 318.99 493.24 L 318.99 487.87 L 321.68 485.19 L 324.36 482.51 L 324.36 477.15 L 324.36 471.79 L 324.36 466.43 L 327.04 463.75 L 329.72 461.07 L 329.72 455.71 L 329.72 450.35 L 329.72 444.98 L 329.72 439.62 L 329.72 434.26 L 332.40 431.58 L 335.08 428.90 L 335.08 423.54 L 335.08 418.18 L 335.08 412.82 L 335.08 407.46 L 335.08 402.09 L 337.76 399.41 L 340.44 396.73 L 340.44 391.37 L 340.44 386.01 L 337.76 383.33 L 332.40 383.33 L 329.72 386.01 L 329.72 391.37 L 327.04 394.05 L 321.68 394.05 L 318.99 396.73 L 316.31 399.41 L 313.63 402.09 L 310.95 404.77 L 308.27 407.46 L 305.59 410.14 L 300.23 410.14 L 297.55 412.82 L 297.55 418.18 L 294.87 420.86 L 292.19 423.54 L 289.51 426.22 L 284.15 426.22 L 281.47 428.90 L 278.79 431.58 L 276.10 428.90 L 273.42 426.22 L 270.74 423.54 L 270.74 418.18 L 268.06 415.50 L 265.38 412.82 L 262.70 410.14 L 260.02 407.46 L 257.34 404.77 L 254.66 402.09 L 254.66 396.73 L 251.98 394.05 L 249.30 391.37 L 246.62 388.69 L 243.94 386.01 L 241.26 383.33 L 238.58 380.65 L 235.90 377.97 L 233.21 375.29 L 233.21 369.93 L 230.53 367.25 L 227.85 364.57 L 225.17 361.88 L 222.49 359.20 L 222.49 353.84 L 222.49 348.48 L 222.49 343.12 L 225.17 340.44 L 230.53 340.44 L 233.21 337.76 L 235.90 335.08 L 238.58 332.40 L 241.26 329.72 L 246.62 329.72 L 249.30 327.04 L 251.98 324.36 L 254.66 321.68 L 257.34 318.99 L 260.02 316.31 L 262.70 313.63 L 268.06 313.63 L 270.74 310.95 L 273.42 308.27 L 276.10 305.59 L 278.79 302.91 L 281.47 300.23 L 284.15 297.55 L 286.83 294.87 L 289.51 292.19 L 294.87 292.19 L 297.55 289.51 L 300.23 286.83 L 302.91 284.15 L 305.59 281.47 L 308.27 278.79 L 310.95 276.10 L 316.31 276.10 L 318.99 273.42 L 321.68 270.74 L 324.36 268.06 L 327.04 265.38 L 329.72 262.70 L 332.40 260.02 L 335.08 257.34 L 337.76 254.66 L 343.12 254.66 L 345.80 251.98 L 348.48 249.30 L 351.16 246.62 L 353.84 243.94 L 356.52 241.26 L 359.20 238.58 L 361.88 235.90 L 364.57 233.21 L 369.93 233.21 L 372.61 230.53 L 372.61 225.17 L 375.29 222.49 L 380.65 222.49 L 383.33 219.81 L 386.01 217.13 Z" fill="#FFFFFF" fill-rule="evenodd"/>
<path d="M 750.58 217.13 L 753.26 219.81 L 755.94 222.49 L 758.62 219.81 L 761.30 217.13 L 766.66 217.13 L 772.02 217.13 L 777.38 217.13 L 782.74 217.13 L 788.10 217.13 L 793.47 217.13 L 798.83 217.13 L 804.19 217.13 L 809.55 217.13 L 814.91 217.13 L 820.27 217.13 L 825.63 217.13 L 830.99 217.13 L 836.36 217.13 L 841.72 217.13 L 847.08 217.13 L 849.76 219.81 L 849.76 225.17 L 849.76 230.53 L 849.76 235.90 L 849.76 241.26 L 849.76 246.62 L 847.08 249.30 L 844.40 251.98 L 844.40 257.34 L 844.40 262.70 L 844.40 268.06 L 844.40 273.42 L 844.40 278.79 L 841.72 281.47 L 839.04 284.15 L 839.04 289.51 L 839.04 294.87 L 839.04 300.23 L 839.04 305.59 L 836.36 308.27 L 833.68 310.95 L 833.68 316.31 L 833.68 321.68 L 833.68 327.04 L 833.68 332.40 L 833.68 337.76 L 830.99 340.44 L 828.31 343.12 L 828.31 348.48 L 828.31 353.84 L 828.31 359.20 L 825.63 361.88 L 822.95 364.57 L 822.95 369.93 L 822.95 375.29 L 822.95 380.65 L 822.95 386.01 L 820.27 388.69 L 817.59 391.37 L 817.59 396.73 L 817.59 402.09 L 817.59 407.46 L 817.59 412.82 L 814.91 415.50 L 812.23 418.18 L 812.23 423.54 L 812.23 428.90 L 812.23 434.26 L 812.23 439.62 L 812.23 444.98 L 812.23 450.35 L 809.55 453.03 L 806.87 455.71 L 806.87 461.07 L 806.87 466.43 L 806.87 471.79 L 804.19 474.47 L 801.51 477.15 L 801.51 482.51 L 801.51 487.87 L 801.51 493.24 L 801.51 498.60 L 801.51 503.96 L 798.83 506.64 L 796.15 509.32 L 796.15 514.68 L 796.15 520.04 L 796.15 525.40 L 796.15 530.76 L 793.47 533.45 L 790.79 536.13 L 790.79 541.49 L 790.79 546.85 L 790.79 552.21 L 788.10 554.89 L 785.42 557.57 L 785.42 562.93 L 785.42 568.29 L 785.42 573.65 L 785.42 579.02 L 782.74 581.70 L 780.06 584.38 L 780.06 589.74 L 780.06 595.10 L 780.06 600.46 L 777.38 603.14 L 774.70 605.82 L 777.38 608.50 L 780.06 611.18 L 777.38 613.86 L 774.70 616.54 L 774.70 621.91 L 777.38 624.59 L 780.06 627.27 L 782.74 629.95 L 788.10 629.95 L 793.47 629.95 L 798.83 629.95 L 804.19 629.95 L 809.55 629.95 L 814.91 629.95 L 820.27 629.95 L 825.63 629.95 L 830.99 629.95 L 836.36 629.95 L 841.72 629.95 L 847.08 629.95 L 852.44 629.95 L 857.80 629.95 L 863.16 629.95 L 868.52 629.95 L 873.88 629.95 L 879.25 629.95 L 881.93 632.63 L 881.93 637.99 L 881.93 643.35 L 881.93 648.71 L 881.93 654.07 L 881.93 659.43 L 881.93 664.80 L 879.25 667.48 L 876.57 670.16 L 876.57 675.52 L 876.57 680.88 L 876.57 686.24 L 873.88 688.92 L 871.20 691.60 L 871.20 696.96 L 871.20 702.32 L 871.20 707.69 L 871.20 713.05 L 868.52 715.73 L 865.84 718.41 L 865.84 723.77 L 865.84 729.13 L 863.16 731.81 L 857.80 731.81 L 855.12 734.49 L 852.44 737.17 L 849.76 734.49 L 847.08 731.81 L 844.40 734.49 L 841.72 737.17 L 836.36 737.17 L 830.99 737.17 L 825.63 737.17 L 820.27 737.17 L 814.91 737.17 L 809.55 737.17 L 804.19 737.17 L 798.83 737.17 L 793.47 737.17 L 788.10 737.17 L 782.74 737.17 L 777.38 737.17 L 772.02 737.17 L 766.66 737.17 L 761.30 737.17 L 755.94 737.17 L 750.58 737.17 L 745.21 737.17 L 739.85 737.17 L 734.49 737.17 L 729.13 737.17 L 723.77 737.17 L 718.41 737.17 L 713.05 737.17 L 707.69 737.17 L 702.32 737.17 L 696.96 737.17 L 691.60 737.17 L 686.24 737.17 L 680.88 737.17 L 675.52 737.17 L 670.16 737.17 L 664.80 737.17 L 659.43 737.17 L 654.07 737.17 L 648.71 737.17 L 643.35 737.17 L 637.99 737.17 L 632.63 737.17 L 627.27 737.17 L 621.91 737.17 L 616.54 737.17 L 611.18 737.17 L 605.82 737.17 L 600.46 737.17 L 595.10 737.17 L 589.74 737.17 L 584.38 737.17 L 579.02 737.17 L 573.65 737.17 L 568.29 737.17 L 562.93 737.17 L 557.57 737.17 L 552.21 737.17 L 546.85 737.17 L 544.17 734.49 L 541.49 731.81 L 538.81 734.49 L 536.13 737.17 L 530.76 737.17 L 528.08 734.49 L 528.08 729.13 L 528.08 723.77 L 528.08 718.41 L 528.08 713.05 L 528.08 707.69 L 528.08 702.32 L 530.76 699.64 L 533.45 696.96 L 533.45 691.60 L 533.45 686.24 L 533.45 680.88 L 536.13 678.20 L 538.81 675.52 L 538.81 670.16 L 538.81 664.80 L 538.81 659.43 L 538.81 654.07 L 541.49 651.39 L 544.17 648.71 L 544.17 643.35 L 544.17 637.99 L 544.17 632.63 L 546.85 629.95 L 552.21 629.95 L 557.57 629.95 L 562.93 629.95 L 568.29 629.95 L 573.65 629.95 L 579.02 629.95 L 584.38 629.95 L 589.74 629.95 L 595.10 629.95 L 600.46 629.95 L 605.82 629.95 L 611.18 629.95 L 616.54 629.95 L 621.91 629.95 L 627.27 629.95 L 632.63 629.95 L 637.99 629.95 L 643.35 629.95 L 648.71 629.95 L 651.39 627.27 L 654.07 624.59 L 656.75 621.91 L 656.75 616.54 L 659.43 613.86 L 662.12 611.18 L 662.12 605.82 L 662.12 600.46 L 662.12 595.10 L 662.12 589.74 L 664.80 587.06 L 667.48 584.38 L 667.48 579.02 L 667.48 573.65 L 667.48 568.29 L 670.16 565.61 L 672.84 562.93 L 672.84 557.57 L 672.84 552.21 L 672.84 546.85 L 672.84 541.49 L 672.84 536.13 L 672.84 530.76 L 675.52 528.08 L 678.20 525.40 L 678.20 520.04 L 678.20 514.68 L 678.20 509.32 L 678.20 503.96 L 680.88 501.28 L 683.56 498.60 L 683.56 493.24 L 683.56 487.87 L 683.56 482.51 L 686.24 479.83 L 688.92 477.15 L 688.92 471.79 L 688.92 466.43 L 688.92 461.07 L 688.92 455.71 L 691.60 453.03 L 694.28 450.35 L 694.28 444.98 L 694.28 439.62 L 694.28 434.26 L 694.28 428.90 L 696.96 426.22 L 699.64 423.54 L 699.64 418.18 L 699.64 412.82 L 699.64 407.46 L 699.64 402.09 L 699.64 396.73 L 699.64 391.37 L 702.32 388.69 L 705.01 386.01 L 702.32 383.33 L 696.96 383.33 L 694.28 386.01 L 691.60 388.69 L 688.92 391.37 L 686.24 394.05 L 683.56 396.73 L 680.88 399.41 L 678.20 402.09 L 675.52 404.77 L 670.16 404.77 L 667.48 407.46 L 664.80 410.14 L 662.12 412.82 L 659.43 415.50 L 656.75 418.18 L 654.07 420.86 L 651.39 423.54 L 648.71 426.22 L 643.35 426.22 L 640.67 428.90 L 637.99 431.58 L 635.31 428.90 L 632.63 426.22 L 629.95 423.54 L 629.95 418.18 L 627.27 415.50 L 624.59 412.82 L 624.59 407.46 L 621.91 404.77 L 619.23 402.09 L 616.54 399.41 L 613.86 396.73 L 611.18 394.05 L 608.50 391.37 L 608.50 386.01 L 605.82 383.33 L 603.14 380.65 L 600.46 377.97 L 597.78 375.29 L 595.10 372.61 L 592.42 369.93 L 592.42 364.57 L 589.74 361.88 L 587.06 359.20 L 584.38 356.52 L 581.70 353.84 L 581.70 348.48 L 584.38 345.80 L 587.06 343.12 L 589.74 340.44 L 595.10 340.44 L 597.78 337.76 L 600.46 335.08 L 603.14 332.40 L 605.82 329.72 L 608.50 327.04 L 611.18 324.36 L 613.86 321.68 L 616.54 318.99 L 621.91 318.99 L 624.59 316.31 L 627.27 313.63 L 629.95 310.95 L 632.63 308.27 L 637.99 308.27 L 640.67 305.59 L 643.35 302.91 L 646.03 300.23 L 648.71 297.55 L 651.39 294.87 L 654.07 292.19 L 656.75 289.51 L 659.43 286.83 L 664.80 286.83 L 667.48 284.15 L 670.16 281.47 L 672.84 278.79 L 675.52 276.10 L 678.20 273.42 L 680.88 270.74 L 686.24 270.74 L 688.92 268.06 L 691.60 265.38 L 694.28 262.70 L 696.96 260.02 L 699.64 257.34 L 702.32 254.66 L 705.01 251.98 L 707.69 249.30 L 713.05 249.30 L 715.73 246.62 L 718.41 243.94 L 721.09 241.26 L 723.77 238.58 L 726.45 235.90 L 729.13 233.21 L 731.81 230.53 L 734.49 227.85 L 739.85 227.85 L 742.53 225.17 L 745.21 222.49 L 747.90 219.81 L 750.58 217.13 Z" fill="#FFFFFF" fill-rule="evenodd"/>
<path d="M 53.61 608.50 L 56.29 611.18 L 53.61 613.86 L 50.93 611.18 L 53.61 608.50 Z" fill="#FFFFFF" fill-rule="evenodd"/>
<path d="M 80.42 688.92 L 83.10 691.60 L 80.42 694.28 L 77.74 691.60 L 80.42 688.92 Z" fill="#FFFFFF" fill-rule="evenodd"/>
<path d="M 85.78 705.01 L 88.46 707.69 L 85.78 710.37 L 83.10 707.69 L 85.78 705.01 Z" fill="#FFFFFF" fill-rule="evenodd"/>
<path d="M 96.50 726.45 L 99.18 729.13 L 96.50 731.81 L 93.82 729.13 L 96.50 726.45 Z" fill="#FFFFFF" fill-rule="evenodd"/>
<path d="M 112.59 753.26 L 115.27 755.94 L 112.59 758.62 L 109.91 755.94 L 112.59 753.26 Z" fill="#FFFFFF" fill-rule="evenodd"/>
<path d="M 123.31 769.34 L 125.99 772.02 L 123.31 774.70 L 120.63 772.02 L 123.31 769.34 Z" fill="#FFFFFF" fill-rule="evenodd"/>
<path d="M 198.37 855.12 L 201.05 857.80 L 198.37 860.48 L 195.69 857.80 L 198.37 855.12 Z" fill="#FFFFFF" fill-rule="evenodd"/>
<path d="M 203.73 860.48 L 206.41 863.16 L 203.73 865.84 L 201.05 863.16 L 203.73 860.48 Z" fill="#FFFFFF" fill-rule="evenodd"/>
<path d="M 214.45 871.20 L 217.13 873.88 L 214.45 876.57 L 211.77 873.88 L 214.45 871.20 Z" fill="#FFFFFF" fill-rule="evenodd"/>
</svg>