<svg width="16" height="16" fill="none" xmlns="http://www.w3.org/2000/svg"><circle cx="8.004" cy="8" r="7" fill="#fff" stroke="#F86433" stroke-width="2"/><path d="M11.76 4.356c.47.089.563.66.455 1.146a141.318 141.318 0 0 0-1.114 5.5c-.153.658-.375 1.231-1.014 1.231-.583 0-1.024-.242-1.242-1.231L8.01 6.728V4.841c.71 0 .843.6 1.04 1.492l.81 3.609c.304-1.747.615-2.478.944-4.64.146-.658.426-1.045.956-.946Zm-7.511 0c-.457.144-.564.66-.457 1.146a141.17 141.17 0 0 1 1.115 5.5c.152.658.375 1.231 1.014 1.231.583 0 1.024-.242 1.241-1.231l.847-4.274V4.841c-.709 0-.847.55-1.05 1.492l-.81 3.609c-.304-1.747-.63-2.478-.959-4.64-.146-.658-.4-1.01-.941-.946Z" fill="#000"/></svg>