<svg width="200" height="200" viewBox="0 0 200 200" fill="none" xmlns="http://www.w3.org/2000/svg"><path fill="#F5F5F5" d="M0 0h200v200H0z"/><path fill-rule="evenodd" clip-rule="evenodd" d="M112.61 49.16a24 24 0 0 0 7.94-1.35v1.75a8 8 0 0 1-8 8H89.53a4.2 4.2 0 1 1 0-8.4h23.08zm-35.28 4.2a12.2 12.2 0 0 1 12.2-12.2h23.08a16 16 0 0 0 6.1-1.2l4.32-1.79a4 4 0 0 1 5.52 3.7v7.7c0 5.05-2.34 9.55-6 12.49v22.97a21.2 21.2 0 0 1-9.4 17.62v6.53h2.74a34 34 0 0 1 34 34v10.95a8 8 0 0 1-8 8H58.11a8 8 0 0 1-8-8v-10.95a34 34 0 0 1 34-34h2.74v-8.65a21.16 21.16 0 0 1-6.65-13.65L77.36 54.5a12.38 12.38 0 0 1-.03-1.13zm18.52 52.17v7.13a4.15 4.15 0 1 0 8.3 0v-6.6a21.31 21.31 0 0 1-8.3-.53zm-8.2 11.65H84.1a26 26 0 0 0-26 26v10.95h83.78v-10.95a26 26 0 0 0-26-26h-3.53a13.16 13.16 0 0 1-24.72 0zm24.9-51.62c.68 0 1.34-.04 2-.12v19.59a13.22 13.22 0 0 1-26.38 1.15l-1.85-21.04c1.02.27 2.1.42 3.2.42h23.03z" fill="#3D505A"/></svg>