<svg xmlns="http://www.w3.org/2000/svg" width="2048" height="2048" viewBox="0 0 2048 2048">
<circle cx="1024.00" cy="1024.00" r="1024.00" fill="#706F6D"/>
<path d="M 2053.47 1141.42 L 2035.68 1152.09 L 2038.05 1216.14 L 2021.44 1242.23 L 2023.82 1289.67 L 2009.58 1303.90 L 1995.35 1375.06 L 1966.89 1417.76 L 1966.89 1446.22 L 1921.82 1536.36 L 1895.72 1560.08 L 1893.35 1579.06 L 1867.26 1602.78 L 1836.42 1664.45 L 1664.45 1836.42 L 1645.47 1838.80 L 1536.36 1921.82 L 1443.85 1966.89 L 1420.13 1966.89 L 1372.69 1995.35 L 1348.97 1995.35 L 1287.30 2023.82 L 1154.46 2035.68 L 1139.04 2053.47 Z" fill="#FFFFFF" fill-rule="evenodd"/>
<path d="M 920.82 2053.47 L 907.77 2035.68 L 838.98 2035.68 L 822.38 2023.82 L 727.49 2009.58 L 727.49 2000.09 L 838.98 2016.70 L 1052.46 2014.33 L 1073.81 2000.09 L 1137.86 2000.09 L 1159.21 1985.86 L 1209.02 1985.86 L 1258.83 1957.40 L 1294.41 1957.40 L 1370.32 1914.70 L 1424.87 1900.47 L 1448.60 1874.38 L 1496.04 1857.77 L 1519.76 1831.68 L 1581.43 1800.84 L 1676.31 1703.59 L 1701.22 1695.29 L 1703.59 1676.31 L 1815.08 1552.97 L 1957.40 1268.32 L 1957.40 1211.39 L 1971.63 1197.16 L 1971.63 1154.46 L 1988.23 1133.11 L 1985.86 1054.84 L 2002.47 1033.49 L 2002.47 869.82 L 1985.86 848.47 L 1988.23 755.96 L 1971.63 734.61 L 1974.00 699.03 L 1957.40 677.68 L 1957.40 637.36 L 1928.93 578.06 L 1928.93 554.34 L 1938.42 554.34 L 1964.51 608.89 L 1966.89 639.73 L 1995.35 684.80 L 1992.98 708.52 L 2023.82 770.19 L 2023.82 827.12 L 2038.05 843.72 L 2035.68 907.77 L 2053.47 918.44 Z" fill="#FFFFFF" fill-rule="evenodd"/>
<path d="M 575.68 249.53 L 857.96 249.53 L 871.00 257.83 L 871.00 1282.55 L 1405.90 1290.85 L 1405.90 1551.78 L 575.68 1554.15 L 562.64 1545.85 L 562.64 257.83 L 575.68 249.53 Z" fill="#FFFFFF" fill-rule="evenodd"/>
<path d="M 1918.26 522.31 L 1920.63 541.29 L 1918.26 522.31 Z" fill="#FFFFFF" fill-rule="evenodd"/>
<path d="M 684.80 1985.86 L 695.47 1991.79 L 684.80 1995.35 L 684.80 1985.86 Z" fill="#FFFFFF" fill-rule="evenodd"/>
</svg>